<svg width="24" height="18" viewBox="0 0 24 18" fill="none" xmlns="http://www.w3.org/2000/svg">
<path d="M9.93739 0.262403C9.52489 0.374903 8.62489 0.712404 7.91239 1.0499C6.93739 1.4999 6.52489 1.5374 5.96239 1.1999C4.94989 0.562403 2.54989 0.674904 1.64989 1.4249C-0.300111 2.9999 -0.412611 5.6999 1.42489 7.1249C2.17489 7.7249 2.54989 8.5124 2.88739 10.2374C3.48739 13.2374 4.91239 15.1874 7.46239 16.6499C9.18739 17.5874 9.93739 17.7749 11.9999 17.7749C16.6124 17.7749 20.1374 14.8874 21.1124 10.3124C21.4499 8.6249 21.8999 7.7624 22.7999 6.8624C24.5249 5.1749 24.3374 3.0374 22.3499 1.4249C21.4499 0.674904 19.0499 0.562403 18.0374 1.1999C17.4749 1.5374 17.0624 1.4999 15.9374 0.974903C14.5124 0.299904 11.2499 -0.112597 9.93739 0.262403ZM15.6749 2.6999C17.2874 3.4874 17.3999 3.4874 18.5999 2.8124C20.1749 1.9874 21.6374 2.2874 22.1249 3.5999C22.6124 4.8374 22.0124 5.9624 20.5874 6.4499C19.5749 6.7874 19.4999 6.9374 19.4999 8.9624C19.4999 13.1624 16.3874 16.1249 11.9999 16.1249C7.61239 16.1249 4.49989 13.1624 4.49989 8.9624C4.49989 6.9374 4.42489 6.7874 3.41239 6.4499C1.98739 5.9624 1.38739 4.8374 1.87489 3.5999C2.36239 2.2874 3.82489 1.9874 5.39989 2.8124C6.63739 3.4874 6.71239 3.4874 8.28739 2.6999C10.4999 1.6124 13.4624 1.6124 15.6749 2.6999Z" fill="black"/>
</svg>
