<svg width="24" height="18" viewBox="0 0 24 18" fill="none" xmlns="http://www.w3.org/2000/svg">
<path d="M5 17L4.01361 17.1644C4.09397 17.6466 4.51116 18 5 18V17ZM19 17V18C19.4888 18 19.906 17.6466 19.9864 17.1644L19 17ZM15.5 9.5L14.6563 10.0369C14.8098 10.2781 15.0592 10.442 15.3415 10.4874C15.6238 10.5327 15.912 10.455 16.1332 10.274L15.5 9.5ZM8.5 9.5L7.86676 10.274C8.08803 10.455 8.37621 10.5327 8.6585 10.4874C8.94078 10.442 9.19017 10.2781 9.34366 10.0369L8.5 9.5ZM2.01361 5.1644L4.01361 17.1644L5.98639 16.8356L3.98639 4.8356L2.01361 5.1644ZM5 18H19V16H5V18ZM19.9864 17.1644L21.9864 5.1644L20.0136 4.8356L18.0136 16.8356L19.9864 17.1644ZM20.3668 4.22604L14.8668 8.72604L16.1332 10.274L21.6332 5.77396L20.3668 4.22604ZM2.36676 5.77396L7.86676 10.274L9.13324 8.72604L3.63324 4.22604L2.36676 5.77396ZM9.34366 10.0369L12.8437 4.53688L11.1563 3.46312L7.65634 8.96312L9.34366 10.0369ZM11.1563 4.53688L14.6563 10.0369L16.3437 8.96312L12.8437 3.46312L11.1563 4.53688ZM12.5 2.5C12.5 2.77614 12.2761 3 12 3V5C13.3807 5 14.5 3.88071 14.5 2.5H12.5ZM12 3C11.7239 3 11.5 2.77614 11.5 2.5H9.5C9.5 3.88071 10.6193 5 12 5V3ZM11.5 2.5C11.5 2.22386 11.7239 2 12 2V0C10.6193 0 9.5 1.11929 9.5 2.5H11.5ZM12 2C12.2761 2 12.5 2.22386 12.5 2.5H14.5C14.5 1.11929 13.3807 0 12 0V2ZM3.5 3.5C3.5 3.77614 3.27614 4 3 4V6C4.38071 6 5.5 4.88071 5.5 3.5H3.5ZM3 4C2.72386 4 2.5 3.77614 2.5 3.5H0.5C0.5 4.88071 1.61929 6 3 6V4ZM2.5 3.5C2.5 3.22386 2.72386 3 3 3V1C1.61929 1 0.5 2.11929 0.5 3.5H2.5ZM3 3C3.27614 3 3.5 3.22386 3.5 3.5H5.5C5.5 2.11929 4.38071 1 3 1V3ZM21.5 3.5C21.5 3.77614 21.2761 4 21 4V6C22.3807 6 23.5 4.88071 23.5 3.5H21.5ZM21 4C20.7239 4 20.5 3.77614 20.5 3.5H18.5C18.5 4.88071 19.6193 6 21 6V4ZM20.5 3.5C20.5 3.22386 20.7239 3 21 3V1C19.6193 1 18.5 2.11929 18.5 3.5H20.5ZM21 3C21.2761 3 21.5 3.22386 21.5 3.5H23.5C23.5 2.11929 22.3807 1 21 1V3Z" fill="black"/>
</svg>
